<svg t="1685068059756" class="icon" viewBox="0 0 1024 1024" version="1.1"
    xmlns="http://www.w3.org/2000/svg" p-id="2582" width="96" height="96">
    <path
        d="M597.2 860.9H342.9c-0.4 0-0.8 0-1.2 0.1h-177V161.8h699.2V405h0.2v152.4c0 17.6 14.2 31.8 31.8 31.8s31.8-14.2 31.8-31.8v-286c0-1.1-0.1-2.3-0.2-3.4V161.8c0-35-28.5-63.6-63.6-63.6H164.7c-35 0-63.6 28.5-63.6 63.6V861c0 35 28.5 63.6 63.6 63.6h301v-0.1h131.4c17.6 0 31.8-14.2 31.8-31.8s-14.2-31.8-31.7-31.8z"
        p-id="2583"></path>
    <path
        d="M292.6 340.3h295c17.6 0 31.8-14.2 31.8-31.8s-14.2-31.8-31.8-31.8h-295c-17.6 0-31.8 14.2-31.8 31.8s14.3 31.8 31.8 31.8zM733.8 441.5c0-17.6-14.2-31.8-31.8-31.8H292.6c-17.6 0-31.8 14.2-31.8 31.8s14.2 31.8 31.8 31.8H702c17.6 0 31.8-14.3 31.8-31.8z"
        p-id="2584"></path>
    <path
        d="M674.565951 339.760102a33.8 33.8 0 1 0 25.8694-62.454256 33.8 33.8 0 1 0-25.8694 62.454256Z"
        p-id="2585"></path>
    <path
        d="M957.1 765.2c-0.2-2.3-0.3-4.6-0.5-6.9-0.5-7.4-1.4-14.7-2.9-22-2.1-13.9-11.8-25.7-26.6-28.9l-2.4-0.5c-3.8-1.3-6.7-3.9-9.9-9.3-2.5-4.3-3.1-9.5-1.8-14.3 5-13.3 1-28.8-9.9-38.5-14.3-13.7-31.3-24.3-49.9-30.9-12.2-5.4-27-1.5-37.3 9.1l-2 2.3c-2.2 2.9-6.1 4.7-11.9 4.7-4.1 0-8.6-2.2-13.9-7.6-10.8-11.2-24.3-13-36.9-8.7l-1.5 0.6c-18.2 7.8-33.9 17.5-47.6 29.3-11.2 9-15.9 23.9-11.7 37.7 1.6 6.9 0.9 12.5-2 17.9-1.7 3.1-5.5 6.1-10.7 8-3.6 0.7-7 2.2-10 4.5-7.3 4.6-12.3 11.4-15.6 19.9l-1.5 3.9v2.8c-1.7 9.9-2.5 18.9-2.5 28.8 0 10.8 0.9 21.3 2.8 30.2 2.2 13.9 11.9 25.6 26.6 28.8l2.4 0.5c3.8 1.3 6.7 4 9.9 9.4 2.4 4.4 3.2 9.8 1.8 14.3-5 13.3-1 28.8 9.9 38.5 14.5 13.9 31.8 24.5 50.8 31.1l4.1 1.3c1.7 0.4 3.6 0.6 5.7 0.6h1.9c9.1 0 18.1-3.7 25.3-10.4l2-2.1c3.2-3.6 7.8-5.7 12.6-5.6 4.1 0 8.6 2.2 13.9 7.6 6.6 6.8 14.9 11.2 24.8 11.2 1.7 0 2.8 0 4.4-0.2 3.1-0.3 6.2-1.1 9-2.4 16.9-7.1 32.6-16.8 46.6-28.6 11.9-8.5 16.5-24.5 12.2-38.2-1.6-6-1-12.4 2-17.9 1.7-3.1 5.5-6.2 10.7-8 3.6-0.7 7-2.3 10-4.5 7.3-4.6 12.3-11.4 15.6-19.9l1.5-3.9v-3.1c1.7-9.9 2.4-18.9 2.4-28.8l0.1-1.8z m-45.5 20.3c-14.6 5.4-26.7 15.4-33.7 28.4-7.4 14-9.8 30.1-6.7 45.6-7.7 6.2-16.3 11.7-26 16.3-12.1-10.8-26-16.8-41.1-16.8-15.9 0-31 6.1-42.1 16.8-9.8-4-19-9.6-27-16.6 3.6-15.4 0.9-31.8-6.9-45.7-8.8-14.7-20.1-24.5-34.6-29.3-0.8-5.7-1.2-11.5-1.2-17.2 0-6.5 0.4-12.2 1.4-18.5 14.6-5.4 26.7-15.4 33.7-28.4 7.4-14 9.8-30.1 6.7-45.6 7.9-6.4 16.8-11.9 26.9-16.8 12 10.7 25.8 16.6 40.9 16.6 16.3 0 31.2-5.6 42-16.4 10 4.5 18.5 9.8 25.8 16.3-3.5 15.4-0.9 31.8 7 45.7 8.8 14.8 20.1 24.5 34.6 29.3 0.6 3.4 1 7.4 1.4 12.5l0.4 5.8c-0.1 6.3-0.5 11.9-1.5 18z"
        p-id="2586"></path>
    <path
        d="M821.1 696.9c-18.7-5-38.2-2.4-55 7.2-34.6 20-46.5 64.4-26.5 99 13.4 23.2 37.8 36.2 62.9 36.2 12.3 0 24.8-3.1 36.2-9.7 0.7-0.4 1.3-0.8 2-1.2 8.9-5.6 11.7-17.3 6.1-26.3-5.6-8.9-17.3-11.7-26.3-6.1-0.3 0.2-0.7 0.4-0.9 0.6-16.4 9.5-37.5 3.8-46.9-12.6-9.5-16.4-3.8-37.5 12.6-46.9 7.9-4.6 17.2-5.8 26.1-3.4 8.9 2.4 16.3 8.1 20.9 16 3.1 5.3 4.7 11.3 4.6 17.4-0.1 10.5 8.4 19.1 18.9 19.2h0.2c10.5 0 19-8.4 19.1-18.9 0.1-12.9-3.2-25.6-9.7-36.8-10-16.7-25.6-28.7-44.3-33.7zM292.6 542.7c-17.6 0-31.8 14.2-31.8 31.8s14.2 31.8 31.8 31.8h298.2c17.6 0 31.8-14.2 31.8-31.8s-14.2-31.8-31.8-31.8H292.6z"
        p-id="2587"></path>
</svg>