<svg t="1685677205800" class="icon" viewBox="0 0 1024 1024" version="1.1"
    xmlns="http://www.w3.org/2000/svg" p-id="3190" width="96" height="96">
    <path
        d="M840.6 97H185.4C137.1 97 98 136.1 98 184.4v655.3c0 48.3 39.1 87.4 87.4 87.4h655.3c48.3 0 87.4-39.1 87.4-87.4V184.4C928 136.1 888.9 97 840.6 97zM791 380.7L466.7 705.1c-17.1 17.1-44.7 17.1-61.8 0L235 535.2c-17.1-17.1-17.1-44.7 0-61.8 17.1-17.1 44.7-17.1 61.8 0l139 139L729.2 319c17.1-17.1 44.7-17.1 61.8 0 17.1 17 17.1 44.7 0 61.7z"
        p-id="3191"></path>
</svg>