<svg t="1685956011901" class="icon" viewBox="0 0 1024 1024" version="1.1"
    xmlns="http://www.w3.org/2000/svg" p-id="4356" width="96" height="96">
    <path
        d="M371.62496 77.47584l274.34496 0 0 32.96256L371.62496 110.4384 371.62496 77.47584 371.62496 77.47584 371.62496 77.47584M988.16 110.4384l0-32.96256-206.28992 0 0 32.96256 173.32736 0 0 159.0784L61.12256 269.5168 61.12256 110.4384l173.32736 0 0-32.96256L28.16 77.47584l0 32.96256 0 0 0 846.85824 0 0 0 32.96256L988.16 990.2592l0-32.96256 0 0L988.16 110.4384 988.16 110.4384 988.16 110.4384 988.16 110.4384M61.12256 957.30176 61.12256 302.27456l894.07488 0 0 655.0272L61.12256 957.30176 61.12256 957.30176 61.12256 957.30176M286.12608 20.48l32.96768 0 0 168.86272-32.96768 0L286.12608 20.48 286.12608 20.48 286.12608 20.48M698.50624 20.48l32.96256 0 0 168.86272-32.96256 0L698.50624 20.48 698.50624 20.48 698.50624 20.48M285.70624 535.14752l0 37.00224c25.94304-15.52384 47.21152-31.68256 64.22528-48.70144l0 268.3904 38.92224 0L388.85376 457.30816l-23.39328 0C344.82688 487.296 318.24384 513.24416 285.70624 535.14752L285.70624 535.14752 285.70624 535.14752M707.00544 647.00928c-3.18464-12.33408-8.4992-24.66816-15.51872-37.00736-7.23456-12.33408-18.49856-22.11328-34.02752-29.1328-15.52384-7.0144-31.68768-11.0592-48.70656-11.69408-16.79872-0.64-35.08736 3.61472-54.44096 12.544 6.37952-20.62336 12.96896-48.70144 19.3536-83.57888l124.40576 0 0-35.09248-153.7536 0c-22.11328 103.78752-34.45248 159.50336-37.00736 167.3728l32.96256 3.82464c10.4192-14.24896 23.6032-23.39328 39.98208-27.21792 16.16384-3.82976 30.83776-3.82976 43.81184 0 12.97408 3.82464 23.6032 11.69408 32.11264 23.39328 8.50432 11.69408 12.97408 25.94304 13.61408 42.74688 0.63488 16.80384-1.92 32.10752-7.87456 45.72672-5.73952 13.60896-15.52384 24.66816-29.1328 33.17248-13.60896 8.50944-31.47264 10.63424-53.59616 6.80448-22.11328-3.82464-37.64224-23.38816-46.78656-58.48576l-35.09248 9.78432c6.3744 31.04768 18.49856 53.1712 35.9424 66.14016 17.43872 12.97408 35.94752 20.20352 55.50592 21.4784 19.3536 1.27488 36.58752-1.06496 51.47136-6.80448s27.64288-13.60896 37.85728-23.39328c10.4192-9.7792 18.07872-22.11328 23.39328-37.00736 5.10464-14.88384 8.07936-29.55776 8.71424-43.81184C711.4752 672.7424 710.1952 659.34848 707.00544 647.00928L707.00544 647.00928 707.00544 647.00928M707.00544 647.00928 707.00544 647.00928z"
        p-id="4357"></path>
</svg>