<svg t="1684728113453" class="icon" viewBox="0 0 1024 1024" version="1.1" xmlns="http://www.w3.org/2000/svg" p-id="4140" width="96" height="96"><path d="M710.6048 150.528H313.3952c-98.816 0-179.2 80.384-179.2 179.2v397.1584c0 98.816 80.384 179.2 179.2 179.2h397.2096c98.816 0 179.2-80.384 179.2-179.2V329.728c0-98.7648-80.384-179.2-179.2-179.2z m128 576.4096c0 70.6048-57.3952 128-128 128H313.3952c-70.6048 0-128-57.3952-128-128V329.728c0-70.6048 57.3952-128 128-128h397.2096c70.6048 0 128 57.3952 128 128v397.2096z" fill="#595757" p-id="4141"></path><path d="M672.5632 379.0336H348.672c-14.1312 0-25.6 11.4688-25.6 25.6s11.4688 25.6 25.6 25.6H486.4v244.5824c0 14.1312 11.4688 25.6 25.6 25.6s25.6-11.4688 25.6-25.6V430.2336h135.0144c14.1312 0 25.6-11.4688 25.6-25.6s-11.4688-25.6-25.6512-25.6z" fill="#595757" p-id="4142"></path></svg>