<svg t="1684728171658" class="icon" viewBox="0 0 1024 1024" version="1.1"
    xmlns="http://www.w3.org/2000/svg" p-id="5996" width="96" height="96">
    <path
        d="M908.27 928.51H115.22c-11.05 0-20.01-8.96-20.01-20.01V564.3c0-11.05 8.96-20.01 20.01-20.01h793.05c11.05 0 20.01 8.96 20.01 20.01v344.2c0.01 11.05-8.95 20.01-20.01 20.01z m-749.06-64h705.08V608.29H159.21v256.22zM908.27 480.76H564.08c-11.05 0-20.01-8.96-20.01-20.01V116.56c0-11.05 8.96-20.01 20.01-20.01h344.19c11.05 0 20.01 8.96 20.01 20.01v344.19c0.01 11.05-8.95 20.01-20.01 20.01z m-300.2-64h256.22V160.55H608.07v256.21zM459.41 480.76H115.22c-11.05 0-20.01-8.96-20.01-20.01V116.56c0-11.05 8.96-20.01 20.01-20.01h344.19c11.05 0 20.01 8.96 20.01 20.01v344.19c0.01 11.05-8.95 20.01-20.01 20.01z m-300.2-64h256.22V160.55H159.21v256.21z"
        p-id="5997"></path>
</svg>