<svg t="1653643817142" class="icon" viewBox="0 0 1024 1024" version="1.1" xmlns="http://www.w3.org/2000/svg" p-id="9336"><path d="M512 64C264.58 64 64 264.58 64 512s200.58 448 448 448 448-200.58 448-448S759.42 64 512 64zM317.55 747.17a40.63 40.63 0 0 1-40.61-40.61V607l5.85 6.11L308.74 641l9 9 56.19 56.6 8.68 8.69 0.13-0.07L408.43 740l7.45 7.14z m142.2-12.5l-28.89-28.73L318.3 593.29l-28.86-28.86 204-204 28.85 28.72 112.82 112.51 28 29.64z m275.38-275.45l-42.43 42.44-9.47-9.5-19.33-19.39-112.65-112.43h-0.62L522 331.88l43-43.13a40.85 40.85 0 0 1 57.69 0L735.4 401.47l-0.27 0.1a40.8 40.8 0 0 1 0 57.65z" fill="#00BEB4" p-id="9337"></path></svg>