<svg t="1689404867987" class="icon" viewBox="0 0 1024 1024" version="1.1" xmlns="http://www.w3.org/2000/svg" p-id="7442" width="200" height="200"><path d="M426.666667 170.666667H170.666667c-47.36 0-85.333333 37.973333-85.333334 85.333333v512c0 46.805333 38.528 85.333333 85.333334 85.333333h682.666666c46.805333 0 85.333333-38.528 85.333334-85.333333V341.333333a85.333333 85.333333 0 0 0-85.333334-85.333333h-341.333333l-85.333333-85.333333z" fill="#5C6BC0" p-id="7443"></path><path d="M849.194667 760.576l163.072-94.08v-188.458667l-163.072 94.293334" fill="#C5CAE9" p-id="7444"></path><path d="M668.16 478.037333l163.114667 94.293334v188.245333l-163.072-94.165333m-180.992-105.130667l163.072 94.165333v-188.330666L487.253333 372.906667m180.992 502.485333l163.072 94.165333V781.226667l-163.072-94.208" fill="#C5CAE9" p-id="7445"></path></svg>