<svg t="1687683523483" class="icon" viewBox="0 0 1024 1024" version="1.1" xmlns="http://www.w3.org/2000/svg" p-id="3738" width="96" height="96"><path d="M848.3 252.1H708.9c-5.5 0-9.9 4.4-9.9 9.9v499.7c0 6 4.8 10.8 10.8 10.8h151.7c27 0 24.2-7.7 24.2-28.8V289.2c0-37.2-2.6-37.2-37.4-37.1z m-240.1-0.1H410.3c-5.5 0-10 4.5-10 10v501.2c0 5.1 4.1 9.2 9.2 9.2h203.9c6 0 11-4.9 11-11V264.2c-0.1-9.1-1.6-12.2-16.2-12.2zM325.6 753.6V263.4c0-6.3-5.1-11.4-11.4-11.4H149.8c-6 0-10.9 4.9-10.9 10.9v496.4c0 7.2 5.9 13.2 13.2 13.2h151.6c5.8 0 13.5 1.9 19.1-2.7 3.2-2.6 2.8-7.8 2.8-16.2zM176.2 177.7h672.1c30.9 0 66.5 1.7 88.4 23.4 21.9 21.8 23.6 57.3 23.6 88.1v446.1c0 30.8-1.7 66.3-23.6 88.1-21.9 21.8-57.5 23.4-88.4 23.4H176.2c-30.9 0-64.7-0.6-86.6-22.3-21.9-21.8-25.4-58.4-25.4-89.2V289.2c0-100.3 37.4-111.5 112-111.5z" p-id="3739"></path></svg>