<svg t="1687162539752" class="icon" viewBox="0 0 2376 1024" version="1.1"
    xmlns="http://www.w3.org/2000/svg" p-id="12508" width="96" height="96">
    <path d="M1797.568732 583.982389H39.556269V207.53856h1758.012463v376.443829"
        p-id="12509"></path>
    <path
        d="M1797.568732 623.538659H39.556269a39.556269 39.556269 0 0 1-39.556269-39.55627V207.53856a39.556269 39.556269 0 0 1 39.556269-39.55627h1758.012463a39.556269 39.556269 0 0 1 39.556269 39.55627v376.443829a39.556269 39.556269 0 0 1-39.556269 39.55627zM79.112539 544.42612h1678.899923V247.094829H79.112539z"
        p-id="12510"></path>
    <path
        d="M948.427484 0m86.62823 0l275.311634 0q86.62823 0 86.62823 86.62823l0 618.396343q0 86.62823-86.62823 86.62823l-275.311634 0q-86.62823 0-86.62823-86.62823l0-618.396343q0-86.62823 86.62823-86.62823Z"
        p-id="12511"></path>
</svg>