<svg t="1684735259092" class="icon" viewBox="0 0 1024 1024" version="1.1"
    xmlns="http://www.w3.org/2000/svg" p-id="5298" width="96" height="96">
    <path
        d="M170.666667 128V64.149333A64.085333 64.085333 0 0 1 234.794667 0h725.077333A64.085333 64.085333 0 0 1 1024 64.149333v725.034667A64.085333 64.085333 0 0 1 959.872 853.333333H896v106.581334A64.149333 64.149333 0 0 1 831.914667 1024H64.085333A64.149333 64.149333 0 0 1 0 959.914667V192.085333A64.149333 64.149333 0 0 1 64.085333 128H170.666667z m85.333333 0h575.914667A64.149333 64.149333 0 0 1 896 192.085333V768h10.666667c17.749333 0 32-14.336 32-32v-618.666667c0-17.749333-14.336-32-32-32h-618.666667c-17.749333 0-32 14.336-32 32V128z m-170.666667 117.44v661.12C85.333333 924.181333 99.712 938.666667 117.44 938.666667h661.12c17.621333 0 32.106667-14.378667 32.106667-32.106667v-661.12c0-17.621333-14.378667-32.106667-32.106667-32.106667H117.44C99.818667 213.333333 85.333333 227.712 85.333333 245.44z m106.666667 95.850667c0-11.754667 9.514667-21.290667 21.290667-21.290667h149.418666c11.754667 0 21.290667 9.514667 21.290667 21.290667v149.418666c0 11.754667-9.514667 21.290667-21.290667 21.290667H213.290667A21.269333 21.269333 0 0 1 192 490.709333v-149.418666z m320 0c0-11.754667 9.514667-21.290667 21.290667-21.290667h149.418666c11.754667 0 21.290667 9.514667 21.290667 21.290667v149.418666c0 11.754667-9.514667 21.290667-21.290667 21.290667h-149.418666a21.269333 21.269333 0 0 1-21.290667-21.290667v-149.418666z m0 320c0-11.754667 9.514667-21.290667 21.290667-21.290667h149.418666c11.754667 0 21.290667 9.514667 21.290667 21.290667v149.418666c0 11.754667-9.514667 21.290667-21.290667 21.290667h-149.418666a21.269333 21.269333 0 0 1-21.290667-21.290667v-149.418666z m-320 0c0-11.754667 9.514667-21.290667 21.290667-21.290667h149.418666c11.754667 0 21.290667 9.514667 21.290667 21.290667v149.418666c0 11.754667-9.514667 21.290667-21.290667 21.290667H213.290667A21.269333 21.269333 0 0 1 192 810.709333v-149.418666z"
        fill="#95969A" p-id="5299"></path>
</svg>