<svg t="1687157824948" class="icon" viewBox="0 0 1024 1024" version="1.1"
    xmlns="http://www.w3.org/2000/svg" p-id="6149" width="96" height="96">
    <path
        d="M727.04 649.0624a31.5392 31.5392 0 0 1-10.5984-1.8432l-228.864-81.664a31.5392 31.5392 0 0 1-20.9408-29.696V352.4608a31.5392 31.5392 0 1 1 63.0784 0v161.1776L737.28 587.8272a31.5392 31.5392 0 0 1-10.5984 61.44z"
        p-id="6150"></path>
    <path
        d="M509.8496 95.5904A416.9728 416.9728 0 1 0 926.72 512.5632a417.4336 417.4336 0 0 0-416.8704-416.9728z m0 767.6928a350.72 350.72 0 1 1 350.72-350.72 350.72 350.72 0 0 1-350.72 350.6688z"
        p-id="6151"></path>
</svg>