<svg t="1687159863341" class="icon" viewBox="0 0 1024 1024" version="1.1"
    xmlns="http://www.w3.org/2000/svg" p-id="11151" width="96" height="96">
    <path
        d="M787.456 211.456h-51.2v-51.2a25.6 25.6 0 1 0-51.2 0v51.2h-307.2v-51.2a25.6 25.6 0 0 0-51.2 0v51.2h-51.2a128 128 0 0 0-128 128v409.6a128 128 0 0 0 128 128h512a128 128 0 0 0 128-128v-409.6a128 128 0 0 0-128-128z m-588.8 128a76.8 76.8 0 0 1 76.8-76.8h51.2v153.6a25.6 25.6 0 0 0 51.2 0v-153.6h307.2v153.6a25.6 25.6 0 0 0 51.2 0v-153.6h51.2a76.8 76.8 0 0 1 76.8 76.8v153.6h-665.6z m665.6 409.6a76.8 76.8 0 0 1-76.8 76.8h-512a76.8 76.8 0 0 1-76.8-76.8v-204.8h665.6z"
        fill="" p-id="11152"></path>
</svg>