<svg t="1653648040253" class="icon" viewBox="0 0 1251 1024" version="1.1" xmlns="http://www.w3.org/2000/svg" p-id="17295" width="200" height="200"><path d="M154.168889 139.377778v488.334222l299.918222-212.195556a56.888889 56.888889 0 0 1 67.470222 1.251556l155.932445 119.296L1006.933333 275.114667V139.377778H154.168889z m0 627.768889v117.475555h560.355555a56.888889 56.888889 0 0 1 0 113.777778H125.724444c-47.331556 0-85.333333-38.001778-85.333333-85.333333V110.933333c0-47.331556 38.001778-85.333333 85.333333-85.333333H1035.377778c47.331556 0 85.333333 38.001778 85.333333 85.333333v191.715556a56.888889 56.888889 0 0 1-21.617778 44.600889l-385.706666 305.493333a56.888889 56.888889 0 0 1-69.859556 0.568889L485.660444 532.536889 154.168889 767.089778z" p-id="17296"></path><path d="M329.955556 364.657778a71.111111 71.111111 0 1 0 0-142.222222 71.111111 71.111111 0 0 0 0 142.222222z" p-id="17297"></path><path d="M1228.629333 749.397333a56.888889 56.888889 0 0 1 0 80.440889l-151.893333 151.893334a56.888889 56.888889 0 0 1-80.440889 0l-151.324444-151.324445a56.888889 56.888889 0 1 1 80.440889-80.440889l111.104 111.104 111.672888-111.672889a56.888889 56.888889 0 0 1 80.440889 0z" p-id="17298"></path><path d="M1036.515556 530.204444a56.888889 56.888889 0 0 1 56.888888 56.888889v353.848889a56.888889 56.888889 0 1 1-113.777777 0v-353.848889a56.888889 56.888889 0 0 1 56.888889-56.888889z" p-id="17299"></path></svg>