<svg t="1653647656082" class="icon" viewBox="0 0 1024 1024" version="1.1" xmlns="http://www.w3.org/2000/svg" p-id="15494" width="200" height="200"><path d="M821.208615 791.630769l73.649231-73.668923a29.538462 29.538462 0 1 1 41.787077 41.767385l-103.424 103.424 0.512 0.512-41.432615 41.432615-146.392616-146.372923a29.302154 29.302154 0 1 1 41.452308-41.432615l75.244308 75.244307v-192.157538a29.302154 29.302154 0 0 1 58.604307 0V791.630769zM157.065846 846.769231H576.787692a29.538462 29.538462 0 0 1 0 59.076923H137.846154a39.384615 39.384615 0 0 1-39.384616-39.384616V157.538462a39.384615 39.384615 0 0 1 39.384616-39.384616h643.977846a39.384615 39.384615 0 0 1 39.384615 39.384616v305.467076a29.302154 29.302154 0 0 1-58.604307 0V177.230769H157.065846v669.538462z m419.977846-492.307693a49.033846 49.033846 0 0 1-48.836923-49.230769c0-27.175385 21.858462-49.230769 48.836923-49.230769a49.033846 49.033846 0 0 1 48.836923 49.230769c0 27.175385-21.858462 49.230769-48.836923 49.230769z" p-id="15495"></path></svg>